<svg width="40" height="40" viewBox="0 0 40 40" fill="none" xmlns="http://www.w3.org/2000/svg">
<path fill-rule="evenodd" clip-rule="evenodd" d="M26.8405 20.8451C26.8773 24.8595 30.3621 26.1947 30.4005 26.2123C30.3709 26.3067 29.8437 28.1163 28.5645 29.9851C27.4589 31.6011 26.3117 33.2115 24.5037 33.2443C22.7277 33.2771 22.1565 32.1915 20.1261 32.1915C18.0957 32.1915 17.4613 33.2115 15.7797 33.2771C14.0349 33.3435 12.7061 31.5299 11.5909 29.9195C9.31332 26.6259 7.57252 20.6131 9.91012 16.5539C11.0709 14.5379 13.1461 13.2619 15.3981 13.2291C17.1125 13.1971 18.7293 14.3819 19.7773 14.3819C20.8237 14.3819 22.7893 12.9563 24.8549 13.1659C25.7205 13.2019 28.1477 13.5155 29.7069 15.7979C29.5813 15.8755 26.8101 17.4883 26.8405 20.8451ZM23.5021 10.9867C24.4285 9.86586 25.0517 8.30426 24.8805 6.75146C23.5453 6.80506 21.9309 7.64106 20.9733 8.76186C20.1149 9.75386 19.3629 11.3427 19.5653 12.8659C21.0541 12.9803 22.5749 12.1091 23.5013 10.9867" fill="#6D7886"/>
</svg>
