<svg width="40" height="40" viewBox="0 0 40 40" fill="none" xmlns="http://www.w3.org/2000/svg">
<path fill-rule="evenodd" clip-rule="evenodd" d="M10.9776 15.8212C10.0808 15.8212 9.36719 16.5324 9.36719 17.426V24.114C9.36719 25.0084 10.0808 25.7196 10.9776 25.7196C11.8736 25.7196 12.5872 25.0076 12.5872 24.114V17.426C12.588 17.2146 12.547 17.0052 12.4663 16.8098C12.3857 16.6144 12.267 16.4369 12.1174 16.2876C11.9677 16.1384 11.7898 16.0203 11.5942 15.9402C11.3986 15.8602 11.189 15.8197 10.9776 15.8212ZM16.0736 28.2052V31.746C16.0736 32.6404 16.788 33.3516 17.684 33.3516C18.5808 33.3516 19.2944 32.6396 19.2944 31.746V28.2052H21.44V31.746C21.44 32.6404 22.1536 33.3516 23.0496 33.3516C23.9464 33.3516 24.66 32.6396 24.66 31.746V28.2052H25.812C26.7736 28.2052 27.548 27.4332 27.548 26.4748V16.0956H13.1856V26.474C13.1856 27.4324 13.96 28.2044 14.9216 28.2044L16.0736 28.2052ZM29.7568 15.8212C28.8608 15.8212 28.1472 16.5324 28.1472 17.426V24.114C28.1472 25.0084 28.86 25.7196 29.7568 25.7196C30.6536 25.7196 31.3672 25.0076 31.3672 24.114V17.426C31.368 17.2145 31.3269 17.005 31.2462 16.8096C31.1655 16.6141 31.0469 16.4366 30.8971 16.2873C30.7473 16.1381 30.5694 16.02 30.3736 15.94C30.1779 15.86 29.9682 15.8196 29.7568 15.8212ZM15.9088 7.3948C15.8709 7.39537 15.8337 7.40555 15.8008 7.4244C15.7739 7.43818 15.7502 7.45732 15.731 7.48064C15.7119 7.50396 15.6977 7.53096 15.6893 7.55997C15.681 7.58899 15.6787 7.6194 15.6826 7.64933C15.6865 7.67927 15.6965 7.70808 15.712 7.734L16.8456 9.7772C14.664 10.9092 13.1896 13.0612 13.1864 15.5308H27.5472C27.5448 13.0612 26.0704 10.9092 23.888 9.7772L25.0224 7.734C25.0379 7.70813 25.0479 7.67936 25.0519 7.64946C25.0558 7.61956 25.0536 7.58917 25.0454 7.56017C25.0371 7.53116 25.023 7.50415 25.0039 7.4808C24.9848 7.45745 24.9612 7.43825 24.9344 7.4244C24.9083 7.40946 24.8795 7.39987 24.8497 7.39621C24.8198 7.39255 24.7896 7.39489 24.7607 7.40309C24.7318 7.41128 24.7048 7.42518 24.6813 7.44395C24.6578 7.46272 24.6383 7.48599 24.624 7.5124L23.4744 9.578C22.4952 9.14752 21.4368 8.92652 20.3672 8.9292C19.2552 8.9292 18.2 9.162 17.26 9.578L16.112 7.5124C16.0922 7.47616 16.0629 7.44603 16.0272 7.4253C15.9915 7.40456 15.9501 7.39401 15.9088 7.3948ZM17.0528 11.7148C16.8944 11.7156 16.7427 11.7788 16.6306 11.8907C16.5184 12.0025 16.4548 12.154 16.4536 12.3124C16.4536 12.6388 16.7256 12.91 17.0536 12.91C17.3816 12.91 17.652 12.6388 17.652 12.3124C17.6507 12.154 17.5871 12.0025 17.475 11.8907C17.3629 11.7788 17.2112 11.7156 17.0528 11.7148ZM23.6808 11.7148C23.5224 11.7156 23.3707 11.7788 23.2586 11.8907C23.1464 12.0025 23.0828 12.154 23.0816 12.3124C23.0816 12.6388 23.3536 12.91 23.6816 12.91C24.0096 12.91 24.28 12.6388 24.28 12.3124C24.2787 12.154 24.2151 12.0025 24.103 11.8907C23.9909 11.7788 23.8392 11.7156 23.6808 11.7148Z" fill="#6D7886"/>
</svg>
